<svg xmlns="http://www.w3.org/2000/svg" viewBox="0 0 64 64" width="64" height="64">
  <rect width="64" height="64" rx="13" fill="#16181D"/>
  <g stroke="#0E1014" stroke-width="1.4" stroke-linejoin="round">
    <!-- cara superior (amarilla) -->
    <polygon points="32,9 55,21 32,33 9,21" fill="#FDD835"/>
    <!-- cara izquierda (verde) -->
    <polygon points="9,21 32,33 32,55 9,43" fill="#1FA84C"/>
    <!-- cara derecha (roja) -->
    <polygon points="55,21 32,33 32,55 55,43" fill="#E5392F"/>
    <!-- divisiones 3x3 sutiles -->
    <g stroke="#0E1014" stroke-width="1" opacity="0.65">
      <line x1="24.3" y1="13" x2="47.3" y2="25"/>
      <line x1="16.7" y1="17" x2="39.7" y2="29"/>
      <line x1="39.7" y1="13" x2="16.7" y2="25"/>
      <line x1="47.3" y1="17" x2="24.3" y2="29"/>
      <line x1="17.3" y1="28.3" x2="17.3" y2="50.3"/>
      <line x1="24.7" y1="32.2" x2="24.7" y2="54.2"/>
      <line x1="9" y1="28.3" x2="32" y2="40.3"/>
      <line x1="9" y1="35.6" x2="32" y2="47.6"/>
      <line x1="46.7" y1="28.3" x2="46.7" y2="50.3"/>
      <line x1="39.3" y1="32.2" x2="39.3" y2="54.2"/>
      <line x1="55" y1="28.3" x2="32" y2="40.3"/>
      <line x1="55" y1="35.6" x2="32" y2="47.6"/>
    </g>
  </g>
</svg>
